<?xml version="1.0" standalone="no"?>
<!DOCTYPE svg PUBLIC "-//W3C//DTD SVG 20010904//EN"
 "http://www.w3.org/TR/2001/REC-SVG-20010904/DTD/svg10.dtd">
<svg version="1.0" xmlns="http://www.w3.org/2000/svg"
 width="507.000000pt" height="520.000000pt" viewBox="0 0 507.000000 520.000000"
 preserveAspectRatio="xMidYMid meet">

<g transform="translate(0.000000,520.000000) scale(0.100000,-0.100000)"
fill="#1a7fb5" stroke="none">
<path d="M1705 4720 c-278 -105 -499 -241 -726 -443 -514 -459 -802 -1170
-750 -1853 9 -117 36 -313 44 -320 1 -1 34 6 72 16 101 27 267 26 365 -1 110
-30 220 -92 303 -169 l72 -68 375 217 c302 174 375 221 373 236 0 11 -9 54
-18 95 -12 55 -16 103 -12 180 13 310 217 568 517 656 l75 22 0 437 0 438 -55
13 c-90 23 -229 97 -298 159 -107 97 -175 206 -215 344 l-23 79 -99 -38z"/>
<path d="M3215 4692 c-60 -243 -271 -454 -515 -515 l-55 -14 -3 -440 -2 -439
59 -12 c130 -27 302 -140 389 -255 55 -73 105 -175 128 -257 25 -92 25 -271 0
-369 -11 -41 -15 -76 -10 -78 5 -2 175 -100 379 -217 l370 -214 65 62 c83 78
146 118 251 158 75 28 98 32 214 35 106 4 144 1 205 -15 41 -11 76 -19 76 -18
9 8 36 223 43 332 34 542 -128 1086 -452 1516 -266 353 -645 634 -1053 781
l-72 26 -17 -67z"/>
<path d="M2390 3001 c-77 -25 -115 -46 -167 -94 -188 -173 -199 -453 -26 -638
209 -223 585 -169 718 105 123 253 0 544 -266 627 -76 24 -185 24 -259 0z"/>
<path d="M1583 1899 c-209 -120 -377 -224 -376 -231 0 -7 9 -42 19 -78 23 -84
23 -241 0 -335 -26 -111 -88 -225 -168 -310 -82 -87 -84 -76 37 -170 630 -490
1440 -625 2190 -365 131 46 374 167 495 247 98 65 253 184 265 203 3 4 -21 35
-53 68 -174 183 -240 444 -174 684 l19 68 -381 219 -381 220 -27 -34 c-71 -86
-234 -180 -365 -211 -146 -35 -346 -13 -475 52 -74 37 -167 104 -210 152 l-36
40 -379 -219z"/>
</g>
</svg>
